 <svg
              width="616"
              height="659"
              viewBox="0 0 616 659"
              fill="none"
              xmlns="http://www.w3.org/2000/svg"
              class="img-fluid rounded-circle"
            >
              <g clip-path="url(#clip0_1_1408)">
                <path
                  fill-rule="evenodd"
                  clip-rule="evenodd"
                  d="M234.761 1053.43C232.292 913.104 179.221 617.296 171.597 541.109C163.975 464.922 191.09 439.12 217.089 451.69C243.088 464.264 250.866 640.046 250.866 640.046C250.866 640.046 252.657 674.45 259.442 713.627C283.973 855.256 266.755 1055.45 266.755 1055.45C266.755 1055.45 262 1068.49 247.609 1066.75C233.22 1065.01 234.761 1053.43 234.761 1053.43Z"
                  fill="#FFC999"
                />
                <path
                  fill-rule="evenodd"
                  clip-rule="evenodd"
                  d="M82.5734 1047.31C85.0423 906.978 138.113 611.17 145.735 534.983C153.36 458.797 126.242 432.994 100.246 445.564C74.2468 458.138 66.4662 633.92 66.4662 633.92C66.4662 633.92 64.6777 668.324 57.8922 707.501C33.3617 849.133 50.5796 1049.32 50.5796 1049.32C50.5796 1049.32 55.3346 1062.36 69.7258 1060.63C84.1117 1058.89 82.5734 1047.31 82.5734 1047.31Z"
                  fill="#FFC999"
                />
                <path
                  fill-rule="evenodd"
                  clip-rule="evenodd"
                  d="M98.3134 415.699L100.045 405.197C100.045 405.197 146.828 405.237 202.653 405.581C203.035 410.939 204.568 417.45 204.568 417.45C204.568 417.45 164.232 430.978 98.3134 415.699Z"
                  fill="#002AB2"
                />
                <path
                  fill-rule="evenodd"
                  clip-rule="evenodd"
                  d="M211.746 340.61L207.817 350.649C207.817 350.649 206.738 400.248 206.738 404.178C153.135 412.854 98.8534 403.497 98.8534 403.497L99.117 385.139L94.752 328.824L211.746 340.61Z"
                  fill="white"
                />
                <path
                  d="M210.933 339.856C211.109 339.407 211.615 339.186 212.064 339.361C212.463 339.517 212.682 339.935 212.603 340.341L212.559 340.492L208.684 350.389L207.121 403.261C207.107 403.943 207.1 404.422 207.1 404.686C207.1 405.106 206.8 405.467 206.387 405.544C175.466 411.281 143.825 410.964 114.719 406.983C110.568 406.416 106.8 405.811 103.46 405.203L102.362 405C101.309 404.803 100.365 404.617 99.5346 404.446L97.894 404.095C97.5319 404.011 97.2683 403.71 97.2238 403.353L97.2185 403.196L98.2459 384.652C98.2725 384.171 98.6843 383.802 99.1655 383.829C99.5933 383.853 99.932 384.181 99.9833 384.591L99.9886 384.749L99.0008 402.55L99.4081 402.637C100.028 402.767 100.722 402.908 101.485 403.056L102.684 403.285C106.262 403.956 110.373 404.627 114.956 405.254C143.262 409.125 173.987 409.512 204.064 404.191L205.361 403.954L205.503 398.122L206.22 373.637L206.945 350.186L207.004 349.896L210.933 339.856Z"
                  fill="black"
                />
                <path
                  fill-rule="evenodd"
                  clip-rule="evenodd"
                  d="M265.101 155.563C265.101 155.563 291.504 151.733 298.48 179.641C324.062 188.944 317.086 216.85 317.086 216.85C317.086 216.85 329.933 238.774 304.41 250.005C302.366 272.468 276.844 268.382 276.844 268.382C276.844 268.382 270.717 285.74 251.318 278.594C230.389 294.874 205.452 274.993 205.452 274.993C205.452 274.993 182.196 284.296 172.896 274.993C151.964 281.97 128.706 256.387 128.706 256.387C128.706 256.387 115.64 259.706 106.338 238.774C82.0384 242.545 55.4908 211.576 77.7488 182.618C63.1477 159.505 79.79 145.862 79.79 145.862C79.79 145.862 75.1965 92.7692 111.953 85.6233C130.839 57.0344 171.681 80.0077 171.681 80.0077C171.681 80.0077 198.736 74.3922 208.437 97.8765C238.669 102.527 237.252 119.145 239.579 133.1C266.632 134.631 265.101 155.563 265.101 155.563Z"
                  fill="black"
                />
                <path
                  fill-rule="evenodd"
                  clip-rule="evenodd"
                  d="M181.211 129.638C160.01 133.358 153.569 117.318 153.569 117.318C153.569 117.318 144.823 94.7266 142.583 108.596C141.391 115.968 129.996 106.186 124.757 114.045C121.231 119.332 130.047 126.148 118.59 140.246C111.952 148.413 138.132 154.933 121.981 169.988C121.981 169.988 133.465 188.365 113.738 194.36L109.376 215.757L154.838 215.687L153.375 191.047C184.006 191.047 185.501 148.946 181.211 129.638Z"
                  fill="#FFC999"
                />
                <path
                  d="M142.13 152.048C142.661 151.518 143.522 151.518 144.052 152.048L144.33 152.303C144.457 152.413 144.619 152.548 144.813 152.701C145.477 153.226 146.258 153.754 147.145 154.247C150.153 155.92 153.586 156.786 157.365 156.42C158.112 156.347 158.777 156.894 158.849 157.642C158.922 158.389 158.374 159.054 157.627 159.126C153.255 159.55 149.285 158.549 145.824 156.623C144.068 155.647 142.82 154.661 142.13 153.971C141.599 153.44 141.599 152.579 142.13 152.048Z"
                  fill="#F5222D"
                />
                <path
                  d="M158.856 130.796C159.393 130.835 159.811 131.258 159.858 131.778L159.86 131.967C159.834 132.685 159.975 133.89 160.449 135.528C161.212 138.166 162.637 141.128 164.893 144.36C165.248 144.868 165.105 145.569 164.58 145.899L163.173 146.772C161.351 147.893 159.744 148.834 158.348 149.609L157.834 149.893C157.444 150.106 157.089 150.296 156.767 150.465L155.668 151.02C155.641 151.033 155.617 151.044 155.597 151.053C155.053 151.304 154.409 151.067 154.159 150.523C153.908 149.98 154.145 149.336 154.688 149.085L155.192 148.838L156.085 148.374C156.306 148.256 156.543 148.128 156.794 147.991C158.089 147.283 159.589 146.416 161.297 145.379L162.474 144.655L162.205 144.244C160.474 141.558 159.281 139.035 158.542 136.708L158.367 136.13C157.877 134.437 157.693 133.097 157.689 132.158L157.698 131.8C157.74 131.203 158.259 130.754 158.856 130.796Z"
                  fill="#DD936F"
                />
                <path
                  fill-rule="evenodd"
                  clip-rule="evenodd"
                  d="M163.217 385.288C163.217 385.288 221.326 400.698 247.833 382.224C276.645 362.145 241.362 285.738 232.135 265.83C224.214 248.736 206.945 237.661 191.228 235.041C175.764 232.465 163.946 231.548 163.946 231.548L160.55 218.31C160.055 216.382 158.317 215.032 156.327 215.032H109.999C107.828 215.032 105.991 216.629 105.682 218.776L103.893 231.314C103.893 231.314 64.8964 229.851 46.4387 246.942C28.7609 263.313 33.8682 300.054 48.6978 334.062C63.5248 368.072 76.0146 395.061 100.809 397.541C146.645 402.124 218.295 362.218 218.295 362.218C218.295 362.218 230.516 355.671 241.868 357.417C239.248 341.7 230.516 330.35 205.197 336.899L114.834 355.671"
                  fill="white"
                />
                <path
                  d="M246.766 303.694C246.899 303.725 247.009 303.751 247.093 303.773C255.061 321.174 260.512 338.459 261.399 352.896C262.289 367.396 258.575 378.89 248.347 384.856C241.467 388.869 231.959 390.908 221.514 391.685C211.08 392.462 199.764 391.978 189.305 390.984C178.848 389.99 169.26 388.489 162.285 387.235C158.798 386.609 155.966 386.044 154.005 385.636C153.313 385.493 152.73 385.368 152.265 385.268L215.259 351.198L215.541 351.046L215.52 350.726L214.55 335.853C219.071 329.94 220.241 323.368 220.281 318.281C220.302 315.715 220.035 313.518 219.763 311.962C219.627 311.184 219.489 310.565 219.385 310.138C219.358 310.026 219.333 309.927 219.311 309.842C227.148 305.001 234.125 303.495 239.151 303.198C241.7 303.048 243.748 303.209 245.155 303.406C245.859 303.505 246.402 303.612 246.766 303.694Z"
                  fill="white"
                  stroke="black"
                />
                <path
                  d="M201.923 358.289C201.811 357.801 201.811 357.801 201.811 357.801L201.812 357.801L201.814 357.801L201.825 357.798L201.868 357.788L202.037 357.749C202.096 357.736 202.167 357.72 202.248 357.701C202.37 357.673 202.517 357.64 202.686 357.602C203.251 357.474 204.068 357.289 205.082 357.064C207.109 356.614 209.922 355.999 213.062 355.344C219.098 354.085 226.363 352.67 231.589 351.979C228.687 343.934 221.842 337.956 213.092 334.633C204.135 331.232 193.218 330.632 182.617 333.445L111.035 352.879L110.627 352.989L110.45 352.605L92.6969 314.069C75.5299 315.418 64.7387 320.803 58.2416 325.836C54.969 328.371 52.7799 330.821 51.412 332.631C50.728 333.536 50.2493 334.281 49.9431 334.797C49.7903 335.054 49.6806 335.254 49.6097 335.388C51.0599 338.716 52.4599 341.993 53.829 345.197C59.4336 358.314 64.5198 370.218 70.409 379.503C77.756 391.086 86.2757 398.469 98.4859 399.045C107.069 399.45 117.803 397.099 129.112 393.314C140.41 389.533 152.236 384.335 162.988 379.081C173.739 373.827 183.408 368.523 190.39 364.531C193.88 362.535 196.698 360.868 198.644 359.7C199.616 359.116 200.37 358.657 200.881 358.344C201.137 358.187 201.331 358.067 201.462 357.986L201.609 357.895L201.646 357.872L201.655 357.866L201.658 357.865C201.658 357.865 201.658 357.864 201.923 358.289ZM201.923 358.289L201.811 357.801L201.729 357.82L201.658 357.864L201.923 358.289Z"
                  fill="white"
                  stroke="black"
                />
                <path
                  d="M209.563 272.072C210.045 272.072 210.436 272.463 210.436 272.945L210.422 274.161L210.395 275.366C210.378 275.993 210.355 276.655 210.326 277.347C210.212 280.094 210.022 282.841 209.739 285.464L209.605 286.604L210.012 287.024C212.759 289.932 214.95 293.022 216.618 296.273L217.025 297.089C221.947 307.29 221.625 318.158 218.139 328.415C217.579 330.06 216.98 331.546 216.379 332.848L216.074 333.494L215.564 334.49C215.328 334.91 214.796 335.06 214.375 334.824C213.955 334.588 213.806 334.056 214.041 333.636L214.291 333.163C214.428 332.893 214.598 332.543 214.794 332.118C215.37 330.869 215.947 329.439 216.486 327.854C219.838 317.991 220.147 307.576 215.453 297.847C213.692 294.198 211.25 290.747 208.071 287.527C207.883 287.337 207.793 287.071 207.826 286.806C208.204 283.777 208.447 280.526 208.583 277.274L208.65 275.318L208.689 273.221L208.691 272.945C208.691 272.463 209.081 272.072 209.563 272.072Z"
                  fill="black"
                />
                <path
                  d="M145.316 231.095C145.798 231.095 146.189 231.486 146.189 231.968C146.189 232.396 145.88 232.753 145.473 232.826L145.316 232.841H103.6C103.118 232.841 102.728 232.45 102.728 231.968C102.728 231.539 103.036 231.183 103.443 231.109L103.6 231.095H145.316Z"
                  fill="black"
                />
                <path
                  d="M164.922 231.22C165.062 230.675 165.618 230.347 166.163 230.487C166.654 230.613 166.969 231.076 166.924 231.564L166.896 231.728L153.145 285.205C152.959 285.929 152.099 286.196 151.537 285.76L151.413 285.647L101.43 232.17C101.045 231.759 101.067 231.114 101.478 230.729C101.844 230.388 102.394 230.367 102.782 230.655L102.919 230.778L151.632 282.898L164.922 231.22Z"
                  fill="black"
                />
                <path
                  fill-rule="evenodd"
                  clip-rule="evenodd"
                  d="M166.632 290.906C171.258 298.708 169.171 308.492 161.977 312.76C154.777 317.029 145.192 314.162 140.566 306.362C135.94 298.56 138.024 288.776 145.221 284.508C152.421 280.24 162.003 283.104 166.632 290.906Z"
                  fill="#464646"
                />
                <path
                  fill-rule="evenodd"
                  clip-rule="evenodd"
                  d="M168.292 290.868C172.92 298.67 170.833 308.454 163.636 312.72C156.439 316.988 146.854 314.124 142.228 306.322C137.603 298.519 139.687 288.738 146.884 284.47C154.081 280.202 163.666 283.066 168.292 290.868Z"
                  fill="black"
                />
                <path
                  fill-rule="evenodd"
                  clip-rule="evenodd"
                  d="M165.356 292.227C168.946 298.283 167.327 305.881 161.738 309.195C156.152 312.508 148.711 310.284 145.12 304.227C141.527 298.168 143.143 290.573 148.732 287.259C154.321 283.943 161.762 286.17 165.356 292.227Z"
                  fill="#C961DE"
                />
                <path
                  d="M132.896 185.934C133.182 185.408 133.84 185.213 134.366 185.499C140.295 188.725 146.438 190.345 152.603 190.429C153.202 190.437 153.68 190.929 153.672 191.528C153.664 192.126 153.172 192.605 152.574 192.597C146.055 192.508 139.567 190.796 133.33 187.404C132.805 187.118 132.61 186.459 132.896 185.934Z"
                  fill="#DD936F"
                />
                <path
                  fill-rule="evenodd"
                  clip-rule="evenodd"
                  d="M142.414 343.681C142.414 343.681 116.275 321.781 100.211 322.929C84.9294 324.021 75.7637 336.463 78.3805 343.447C78.3805 343.447 74.8923 349.56 80.5644 351.524C79.8006 355.999 86.2391 355.671 86.2391 355.671C86.2391 355.671 85.1499 358.508 89.7327 359.162C94.3155 359.818 99.3771 350.429 111.275 352.36L142.414 343.681Z"
                  fill="#FFC999"
                />
                <path
                  d="M99.5564 321.275C92.3984 321.786 84.7168 326.885 79.1982 333.697C76.8821 336.555 75.2863 339.371 74.837 341.433L74.7833 341.71C74.4898 343.437 75.0819 344.673 76.3513 345.078L76.431 345.099L76.3322 345.329C75.9741 346.206 75.801 347.096 75.8916 347.981L75.935 348.293C76.171 349.627 77.029 350.725 78.5117 351.495L78.8425 351.655L78.842 351.729C78.8574 353.861 80.2942 355.213 82.5101 355.821L82.979 355.937C83.4474 356.04 83.9126 356.107 84.3581 356.146L84.4814 356.153L84.4897 356.241C84.5413 356.644 84.6719 357.052 84.9032 357.452C85.57 358.604 86.9257 359.364 89.0053 359.661C90.1633 359.827 91.3088 359.535 92.6674 358.832L93.0817 358.609C93.9249 358.137 97.1422 356.013 97.1803 355.989C101.669 353.154 105.47 352.035 110.527 352.856C110.675 352.88 110.827 352.873 110.972 352.836L143.31 344.48C144.171 344.257 144.412 343.15 143.722 342.589L142.557 341.668L141.372 340.756C140.749 340.282 140.08 339.781 139.369 339.258C135.987 336.767 132.35 334.276 128.597 331.95C124.264 329.265 120.055 326.975 116.067 325.201C109.963 322.485 104.602 321.074 100.157 321.242L99.5564 321.275ZM115.186 327.181C119.075 328.912 123.201 331.156 127.455 333.793C131.155 336.086 134.745 338.545 138.084 341.003L139.642 342.165L140.644 342.928L110.643 350.681L110.874 350.717C105.436 349.834 101.252 350.97 96.5853 353.807L96.0228 354.156C95.9222 354.22 92.7846 356.291 92.0236 356.717C90.8561 357.37 90.0198 357.616 89.3119 357.515C87.8379 357.305 87.075 356.877 86.7793 356.366C86.6568 356.155 86.6187 355.923 86.6395 355.699L86.6765 355.486C86.9374 354.806 86.4691 354.086 85.762 354.019L85.5609 354.016C84.8459 354.036 83.935 353.964 83.0838 353.731C81.5094 353.299 80.8197 352.54 81.0609 351.133C81.1505 350.61 80.8485 350.099 80.3473 349.926C78.7863 349.385 78.1402 348.66 78.048 347.76C77.9826 347.121 78.1932 346.364 78.6002 345.592C78.8223 345.171 79.0426 344.849 79.1742 344.686C79.8254 343.879 79.0796 342.706 78.0722 342.953L77.6818 343.04C76.8127 343.203 76.7243 342.954 76.9551 341.894C77.3192 340.223 78.7605 337.681 80.8825 335.061C86.0589 328.672 93.2503 323.899 99.711 323.437C103.847 323.141 109.1 324.474 115.186 327.181Z"
                  fill="#DD936F"
                />
                <path
                  d="M99.4215 328.838C100.016 328.764 100.557 329.185 100.631 329.779C100.706 330.373 100.284 330.915 99.6903 330.989C95.5675 331.505 91.1009 333.857 86.6057 337.469C84.7847 338.932 83.0854 340.502 81.5561 342.071L80.7999 342.863L79.8842 343.87C79.7762 343.993 79.697 344.085 79.6478 344.144C79.2631 344.602 78.5794 344.662 78.1208 344.277C77.6623 343.893 77.6026 343.209 77.9873 342.75L78.5245 342.137C78.9526 341.66 79.4475 341.129 80.0035 340.558C81.5906 338.93 83.3534 337.301 85.248 335.779C90.0279 331.938 94.8228 329.413 99.4215 328.838Z"
                  fill="#DD936F"
                />
                <path
                  d="M106.631 334.69C107.229 334.671 107.73 335.139 107.75 335.738C107.77 336.336 107.301 336.837 106.703 336.857C106.341 336.869 105.975 336.893 105.607 336.927C100.491 337.412 94.9301 340.033 89.3158 344.112C87.1032 345.719 85.0365 347.443 83.1747 349.166C82.6865 349.618 82.2391 350.046 81.8358 350.442L80.9201 351.367C80.8919 351.397 80.8677 351.423 80.8475 351.445C80.4394 351.882 79.7536 351.907 79.3157 351.498C78.8778 351.09 78.8537 350.404 79.2618 349.967L79.911 349.299L80.7486 348.476C81.0474 348.188 81.3655 347.887 81.7021 347.575C83.6234 345.797 85.7549 344.019 88.0418 342.358C93.9416 338.072 99.8279 335.297 105.402 334.769C105.815 334.73 106.224 334.704 106.631 334.69Z"
                  fill="#DD936F"
                />
                <path
                  d="M106.597 341.582C107.195 341.544 107.71 341.998 107.748 342.595C107.786 343.192 107.332 343.707 106.735 343.745C104.885 343.863 102.586 344.658 99.9595 346.033C98.1086 347.002 96.1427 348.234 94.1124 349.667C92.2367 350.991 90.41 352.411 88.7074 353.832L87.8588 354.549L86.5314 355.715C86.0904 356.12 85.4048 356.091 85 355.65C84.5953 355.209 84.6247 354.523 85.0657 354.118L85.6727 353.576L86.448 352.903C86.7227 352.668 87.0133 352.422 87.3187 352.167C89.0634 350.712 90.935 349.256 92.8625 347.896C94.9655 346.412 97.01 345.131 98.9538 344.113C101.826 342.609 104.39 341.722 106.597 341.582Z"
                  fill="#DD936F"
                />
                <path
                  d="M82.6326 285.177C83.0363 285.034 83.4755 285.205 83.6816 285.564L83.7474 285.707L93.3918 312.814C93.5881 313.366 93.1961 313.95 92.6112 313.978L92.109 314.01C91.6904 314.04 91.2037 314.082 90.6546 314.136C89.0816 314.292 87.3271 314.522 85.437 314.84C80.0384 315.747 74.6412 317.174 69.6127 319.229C60.4153 322.988 53.5221 328.41 49.8371 335.761C49.6211 336.192 49.0967 336.366 48.6658 336.15C48.2349 335.934 48.0607 335.41 48.2767 334.979C52.1774 327.198 59.3976 321.518 68.9523 317.613C74.1119 315.504 79.6305 314.046 85.1477 313.119C86.7564 312.848 88.2698 312.64 89.6617 312.486L90.8942 312.36L91.3628 312.317L82.1029 286.292C81.9593 285.889 82.1308 285.449 82.4896 285.243L82.6326 285.177Z"
                  fill="white"
                />
                <path
                  d="M226.816 304.767C233.539 301.864 240.678 300.679 247.728 302.215C248.199 302.318 248.497 302.783 248.395 303.254C248.292 303.725 247.827 304.023 247.356 303.921C240.711 302.472 233.924 303.599 227.508 306.37C226.208 306.931 225.011 307.525 223.932 308.125L223.298 308.485C222.561 308.914 222.049 309.244 221.79 309.427C221.396 309.704 220.851 309.609 220.574 309.215C220.296 308.821 220.391 308.277 220.785 307.999L221.22 307.71C221.564 307.487 221.965 307.241 222.421 306.976C223.717 306.222 225.19 305.47 226.816 304.767Z"
                  fill="white"
                />
                <path
                  d="M230.462 347.634C230.847 348.205 231.195 348.746 231.504 349.248C231.504 349.249 231.505 349.25 231.506 349.251L232.042 350.151C232.043 350.152 232.043 350.154 232.044 350.155C232.145 350.331 232.219 350.465 232.266 350.553C232.434 350.868 232.282 351.25 231.964 351.372L231.843 351.405L212.102 355.201L212.034 355.214L211.972 355.245L146.747 387.983C146.493 388.11 146.19 388.035 146.023 387.818L145.955 387.707C145.839 387.457 145.915 387.163 146.127 386.999L146.241 386.93L211.551 354.151L211.767 354.078L230.134 350.544L230.85 350.407L230.464 349.789L230.199 349.363L230.196 349.359C230.088 349.188 229.975 349.013 229.858 348.834L229.856 348.832L229.496 348.291L229.494 348.288C228.06 346.165 226.383 344.04 224.481 342.059C221.406 338.854 218.034 336.334 214.406 334.779C214.109 334.652 213.972 334.309 214.099 334.012C214.226 333.716 214.569 333.578 214.865 333.705C218.638 335.322 222.13 337.923 225.324 341.25C227.274 343.282 228.991 345.457 230.462 347.634Z"
                  fill="black"
                  stroke="black"
                />
                <path
                  d="M99.0777 415.172C99.2563 414.638 99.8339 414.35 100.368 414.529L101.464 414.875L102.428 415.164C103.106 415.363 103.854 415.576 104.669 415.8C108.166 416.759 112.17 417.719 116.615 418.616C144.813 424.302 174.83 424.73 203.136 416.472C203.676 416.314 204.242 416.625 204.4 417.165C204.558 417.705 204.247 418.271 203.707 418.429C175.04 426.793 144.706 426.36 116.212 420.614C111.72 419.708 107.671 418.737 104.129 417.766L102.939 417.433C102.369 417.272 101.838 417.116 101.346 416.969L99.9827 416.547C99.8752 416.513 99.7878 416.484 99.7209 416.462C99.187 416.283 98.8991 415.706 99.0777 415.172Z"
                  fill="#253368"
                />
                <path
                  d="M144.62 130.655C145.343 130.655 145.928 131.24 145.928 131.963C145.928 136.99 142.143 141.108 137.415 141.108C132.689 141.108 128.907 136.99 128.907 131.963C128.907 131.24 129.493 130.655 130.215 130.655C130.938 130.655 131.524 131.24 131.524 131.963C131.524 135.592 134.187 138.492 137.415 138.492C140.646 138.492 143.311 135.592 143.311 131.963C143.311 131.24 143.897 130.655 144.62 130.655Z"
                  fill="#253368"
                />
                <path
                  d="M177.626 131.554C178.312 131.554 178.867 132.11 178.867 132.795C178.867 137.762 175.467 141.874 171.145 141.874C166.822 141.874 163.422 137.762 163.422 132.795C163.422 132.11 163.978 131.554 164.663 131.554C165.349 131.554 165.904 132.11 165.904 132.795C165.904 136.484 168.308 139.391 171.145 139.391C173.981 139.391 176.385 136.484 176.385 132.795C176.385 132.11 176.941 131.554 177.626 131.554Z"
                  fill="#253368"
                />
                <path
                  d="M129.838 116.564C134.832 114.456 140.12 114.668 145.119 116.273C146.555 116.735 147.628 117.201 148.243 117.525C148.882 117.862 149.127 118.654 148.79 119.293C148.452 119.932 147.661 120.177 147.022 119.84L146.693 119.68C146.592 119.633 146.471 119.579 146.333 119.519C145.744 119.263 145.068 119.005 144.318 118.765C139.863 117.334 135.187 117.147 130.855 118.975C130.065 119.309 129.294 119.708 128.545 120.177C127.932 120.56 127.125 120.373 126.742 119.761C126.359 119.148 126.545 118.34 127.158 117.957C128.025 117.415 128.92 116.952 129.838 116.564Z"
                  fill="#253368"
                />
                <path
                  fill-rule="evenodd"
                  clip-rule="evenodd"
                  d="M200.358 415.153C223.328 416.683 279.487 561.09 300.672 612.714C298.049 623.192 281.528 641.814 281.528 641.814C281.528 641.814 283.413 650.108 284.573 655.092C265.176 671.428 227.4 680.618 227.4 680.618V687.764C167.159 716.352 85.7493 690.566 85.7493 690.566C85.7493 690.566 84.2164 689.036 85.2384 683.42C57.736 683.42 -1.54492 649.216 -1.54492 649.216L6.62294 631.861L-17.8806 607.354C-17.8806 607.354 56.9991 479.296 69.7552 451.143C83.9635 419.786 99.6619 413.964 99.6619 413.964C99.6619 413.964 159.596 412.433 200.358 415.153Z"
                  fill="#002AB2"
                />
                <path
                  d="M71.0449 495.627C71.2871 495.119 71.8954 494.904 72.4036 495.146C72.861 495.364 73.0814 495.878 72.9443 496.349L72.8853 496.504L0.755111 647.873L1.66227 648.524L2.43159 649.062C4.37353 650.409 6.66209 651.91 9.28249 653.529C16.7768 658.156 25.4215 662.786 35.0981 667.107C50.633 674.045 67.3122 679.506 84.9212 682.932C85.4738 683.039 85.8346 683.574 85.7271 684.127C85.6196 684.679 85.0845 685.04 84.5319 684.933C66.7633 681.476 49.9375 675.967 34.2668 668.969C24.5042 664.609 15.7801 659.937 8.21141 655.263C5.85439 653.808 3.76047 652.444 1.93993 651.199L1.27005 650.738C0.855171 650.45 0.473562 650.182 0.125619 649.933L-0.844296 649.23C-0.980192 649.129 -1.08059 649.054 -1.14505 649.005C-1.48026 648.749 -1.61848 648.318 -1.50889 647.923L-1.44659 647.756L71.0449 495.627Z"
                  fill="black"
                />
                <path
                  d="M217.596 482.355C218.068 482.17 218.594 482.361 218.844 482.784L218.917 482.933L286.546 655.741C286.72 656.185 286.562 656.691 286.166 656.958L285.691 657.27C285.306 657.521 284.851 657.811 284.33 658.137L282.997 658.96C281.838 659.667 280.558 660.423 279.166 661.219C273.601 664.403 267.368 667.586 260.615 670.557C249.901 675.27 238.901 678.995 227.869 681.36C227.319 681.478 226.777 681.127 226.659 680.577C226.541 680.026 226.891 679.484 227.442 679.366C238.328 677.033 249.199 673.352 259.794 668.691C266.479 665.751 272.648 662.6 278.154 659.45C280.079 658.348 281.784 657.326 283.248 656.409L284.345 655.711L217.019 483.676C216.834 483.204 217.025 482.678 217.447 482.428L217.596 482.355Z"
                  fill="black"
                />
                <path
                  d="M179.47 442.488C180.021 442.373 180.562 442.726 180.677 443.277L184.357 460.992C185.666 467.324 187.059 474.102 188.525 481.264L189.862 487.811C196.221 518.981 202.58 550.777 208.577 581.622L210.069 589.313C211.171 595.008 212.251 600.625 213.308 606.157L215.598 618.193C220.537 644.293 224.846 667.944 228.403 688.613C228.487 689.103 228.206 689.582 227.738 689.747C224.325 690.951 220.862 692.057 217.353 693.065C180.789 703.569 141.799 703.233 105.086 696.364C99.4572 695.311 94.3821 694.182 89.9436 693.053L88.4521 692.667C87.9762 692.541 87.5219 692.419 87.0895 692.301L85.3111 691.802C84.9007 691.684 84.6045 691.595 84.4264 691.54C83.9825 691.402 83.6952 690.985 83.7081 690.535L83.7293 690.364L118.972 515.797C119.083 515.246 119.621 514.889 120.173 515C120.669 515.1 121.008 515.546 120.99 516.036L120.97 516.201L85.9121 689.853L87.628 690.335C88.4811 690.568 89.4215 690.816 90.4463 691.077C94.8436 692.196 99.8762 693.315 105.461 694.36C141.889 701.175 180.576 701.51 216.79 691.106C219.567 690.308 222.313 689.449 225.029 688.527L226.246 688.105L224.932 680.538C221.554 661.24 217.58 639.582 213.099 615.954L212.094 610.671C210.788 603.811 209.444 596.817 208.067 589.7C202.628 561.587 196.86 532.564 191.042 503.845L185.229 475.333L178.682 443.695C178.566 443.144 178.919 442.604 179.47 442.488Z"
                  fill="black"
                />
                <path
                  d="M150.365 445.788C150.871 445.816 151.271 446.208 151.325 446.696L151.329 446.861L142.414 615.065C142.384 615.627 141.904 616.059 141.342 616.031C140.836 616.002 140.436 615.611 140.382 615.123L140.378 614.957L149.293 446.754C149.323 446.191 149.803 445.76 150.365 445.788Z"
                  fill="black"
                />
                <path
                  d="M120.515 420.194C120.691 419.659 121.267 419.367 121.802 419.543C122.283 419.701 122.567 420.183 122.491 420.668L122.452 420.83L88.7615 523.44C88.5859 523.975 88.0099 524.266 87.4751 524.091C86.9937 523.933 86.7097 523.45 86.7857 522.965L86.8246 522.804L120.515 420.194Z"
                  fill="black"
                />
              </g>
              <defs>
                <clipPath id="clip0_1_1408">
                  <path
                    d="M-14 -161H616V344C616 517.97 474.97 659 301 659C127.03 659 -14 517.97 -14 344V-161Z"
                    fill="white"
                  />
                </clipPath>
              </defs>
            </svg>